<svg aria-hidden="true" style="position: absolute; width: 0; height: 0; overflow: hidden;" version="1.1" xmlns="http://www.w3.org/2000/svg" xmlns:xlink="http://www.w3.org/1999/xlink">
<defs>
<symbol id="icon-headphones" viewBox="0 0 20 20">
<title>headphones</title>
<path d="M16 8c0-3.314-2.686-6-6-6s-6 2.686-6 6v0 11h-2c-1.105 0-2-0.895-2-2v0-4c0-1.105 0.895-2 2-2v0-3c0-4.418 3.582-8 8-8s8 3.582 8 8v0 3c1.105 0 2 0.895 2 2v0 4c0 1.105-0.895 2-2 2v0h-2v-11zM12 10h3v10h-3v-10zM5 10h3v10h-3v-10z"></path>
</symbol>
<symbol id="icon-list-add" viewBox="0 0 20 20">
<title>list-add</title>
<path d="M15 9h-3v2h3v3h2v-3h3v-2h-3v-3h-2v3zM0 3h10v2h-10v-2zM0 11h10v2h-10v-2zM0 7h10v2h-10v-2zM0 15h10v2h-10v-2z"></path>
</symbol>
<symbol id="icon-music-artist" viewBox="0 0 20 20">
<title>music-artist</title>
<path d="M15.75 8l-3.74-3.75c-0.006-0.083-0.010-0.18-0.010-0.277 0-2.204 1.786-3.99 3.99-3.99 1.111 0 2.116 0.454 2.839 1.187l0 0c0.73 0.725 1.182 1.729 1.182 2.839 0 2.209-1.791 4-4 4-0.092 0-0.183-0.003-0.274-0.009l0.012 0.001zM1.85 15.3l9.2-9.19 2.83 2.83-9.2 9.2-2.82-2.84zM0.45 18.13l2.11-2.12 1.42 1.42-2.12 2.12-1.42-1.42zM10 15l2-2v7h-2v-5z"></path>
</symbol>
<symbol id="icon-music-notes" viewBox="0 0 20 20">
<title>music-notes</title>
<path d="M20 2.5v-2.5l-14 2v12.17c-0.297-0.108-0.639-0.17-0.996-0.17-0.002 0-0.003 0-0.005 0h-2c-1.657 0-3 1.343-3 3s1.343 3 3 3v0h2c1.657 0 3-1.343 3-3v0-11.29l10-1.41v7.88c-0.297-0.108-0.639-0.17-0.996-0.17-0.002 0-0.003 0-0.005 0h-2c-1.657 0-3 1.343-3 3s1.343 3 3 3h2c1.657 0 3-1.343 3-3v0-12.51z"></path>
</symbol>
<symbol id="icon-thumbs-up" viewBox="0 0 20 20">
<title>thumbs-up</title>
<path d="M11 0h1v3l3 7v8c0 1.105-0.895 2-2 2v0h-8c-1.1 0-2.31-0.84-2.7-1.88l-2.3-6.12v-2c0-1.105 0.895-2 2-2v0h7v-6c0-1.105 0.895-2 2-2v0zM17 10h3v10h-3v-10z"></path>
</symbol>
<symbol id="icon-trophy" viewBox="0 0 20 20">
<title>trophy</title>
<path d="M15 9c1.657 0 3-1.343 3-3v0h2c0 0 0 0.001 0 0.001 0 2.761-2.239 5-5 5-0.035 0-0.070-0-0.105-0.001l0.005 0c-0.411 1.966-1.934 3.489-3.867 3.894l-0.033 0.006v2.1l5 2v1h-12v-1l5-2v-2.1c-1.966-0.411-3.489-1.934-3.894-3.867l-0.006-0.033h-0.1c-2.761 0-5-2.239-5-5v0h2c0 1.657 1.343 3 3 3v0-5h-3v2h-2v-4h5v-2h10v2h5v4h-2v-2h-3v5z"></path>
</symbol>
</defs>
</svg>
